<svg style="fill-rule:evenodd;clip-rule:evenodd;stroke-linejoin:round;stroke-miterlimit:2;" xml:space="preserve" xmlns:xlink="http://www.w3.org/1999/xlink" xmlns="http://www.w3.org/2000/svg" version="1.1" viewBox="0 0 257 257" height="100%" width="100%">
    <g transform="matrix(1,0,0,1,-549,-3)">
        <g transform="matrix(1,0,0,1,549.044,3.08976)">
            <rect style="fill:none;" height="256" width="256" y="0" x="0" id="DrawMode_Points"></rect>
            <g id="DrawMode_Points1">
                <g transform="matrix(1,0,0,1,-4.2102,52.6549)">
                    <circle style="fill:rgb(107,198,209);" r="11.931" cy="48.631" cx="47.862"></circle>
                    <g transform="matrix(0.640139,0,0,0.707426,12.9436,20.6364)">
                        <g transform="matrix(24,0,0,24,61.9876,47.9486)">
                        </g>
                        <text style="font-family:'IBMPlexSans-MediumItalic', 'IBM Plex Sans', sans-serif;font-weight:500;font-style:italic;font-size:24px;fill:white;" y="47.949px" x="47.588px">1</text>
                    </g>
                </g>
                <g transform="matrix(1,0,0,1,45.1538,-20.8628)">
                    <g transform="matrix(1,0,0,1,0,168.153)">
                        <circle style="fill:rgb(107,198,209);" r="11.931" cy="48.631" cx="47.862"></circle>
                    </g>
                    <g transform="matrix(0.640139,0,0,0.707426,12.9436,188.789)">
                        <g transform="matrix(24,0,0,24,61.9876,47.9486)">
                        </g>
                        <text style="font-family:'IBMPlexSans-MediumItalic', 'IBM Plex Sans', sans-serif;font-weight:500;font-style:italic;font-size:24px;fill:white;" y="47.949px" x="47.588px">2</text>
                    </g>
                </g>
                <g transform="matrix(1,0,0,1,-50.3815,-152.642)">
                    <g transform="matrix(1,0,0,1,167.831,168.153)">
                        <circle style="fill:rgb(107,198,209);" r="11.931" cy="48.631" cx="47.862"></circle>
                    </g>
                    <g transform="matrix(0.640139,0,0,0.707426,180.744,188.789)">
                        <g transform="matrix(24,0,0,24,61.9876,47.9486)">
                        </g>
                        <text style="font-family:'IBMPlexSans-MediumItalic', 'IBM Plex Sans', sans-serif;font-weight:500;font-style:italic;font-size:24px;fill:white;" y="47.949px" x="47.588px">3</text>
                    </g>
                </g>
                <g transform="matrix(1,0,0,1,-21.0909,114.568)">
                    <g transform="matrix(1,0,0,1,167.831,-2.84217e-14)">
                        <circle style="fill:rgb(107,198,209);" r="11.931" cy="48.631" cx="47.862"></circle>
                    </g>
                    <g transform="matrix(0.640139,0,0,0.707426,180.775,20.6364)">
                        <g transform="matrix(24,0,0,24,61.9876,47.9486)">
                        </g>
                        <text style="font-family:'IBMPlexSans-MediumItalic', 'IBM Plex Sans', sans-serif;font-weight:500;font-style:italic;font-size:24px;fill:white;" y="47.949px" x="47.588px">4</text>
                    </g>
                </g>
            </g>
        </g>
    </g>
</svg>
